# File created by Blade
# Date/Time:  Wed Jan 21 14:43:43 2015
#---------------------------------------------------------
:version 1.10
:name HOM
:units
  mass 1.0
  length 1.000000
  angle deg
:documentation
     Acclaim Skeleton File
:root
   axis xyz
   order TX TY TZ RX RY RZ
   position 0.000000 0.000000 0.000000
   orientation 0 0 0
:bonedata
   begin
      id 1
      name Spine_dum
      direction 0.000000 1.000000 0.000000
      length 7.067664
      axis 0.0 0.0 0.0 xyz
   end
   begin
      id 2
      name LeftUpLeg_dum
      direction 1.000000 0.000000 0.000000
      length 4.013002
      axis 0.0 0.0 0.0 xyz
   end
   begin
      id 3
      name RightUpLeg_dum
      direction -1.000000 0.000000 0.000000
      length 4.013002
      axis 0.0 0.0 0.0 xyz
   end
   begin
      id 4
      name Spine
      direction 0.000000 1.000000 0.000000
      length 0.000000
      axis 0.0 0.0 0.0 xyz
      dof rx ry rz
   end
   begin
      id 5
      name Spine_dum1
      direction 0.000000 1.000000 0.000000
      length 15.039886
      axis 0.0 0.0 0.0 xyz
   end
   begin
      id 6
      name Spine_dum2
      direction 0.000000 1.000000 0.000000
      length 10.530368
      axis 0.0 0.0 0.0 xyz
   end
   begin
      id 7
      name Spine_dum3
      direction 0.000000 1.000000 0.000000
      length 10.530368
      axis 0.0 0.0 0.0 xyz
   end
   begin
      id 8
      name Head
      direction 0.000000 1.000000 0.000000
      length 4.527550
      axis 0.0 0.0 0.0 xyz
      dof rx ry rz
   end
   begin
      id 9
      name LeftShoulder
      direction 1.000000 0.000000 0.000000
      length 7.028855
      axis 0.0 0.0 -90.0 xyz
      dof rx ry rz
   end
   begin
      id 10
      name LeftArm
      direction 1.000000 0.000000 0.000000
      length 10.797705
      axis 0.0 0.0 -90.0 xyz
      dof rx ry rz
   end
   begin
      id 11
      name LeftForeArm
      direction 1.000000 0.000000 0.000000
      length 7.907442
      axis 0.0 0.0 -90.0 xyz
      dof ry rz rx
   end
   begin
      id 12
      name LeftHand
      direction 0.000000 0.000000 0.000000
      length 0.000000
      axis 0.0 0.0 -90.0 xyz
      dof rx ry rz
   end
   begin
      id 13
      name LeftHand_dum1
      direction 0.000000 0.000000 0.000000
      length 0.000000
      axis 0.0 0.0 -90.0 xyz
   end
   begin
      id 14
      name LeftHand_dum2
      direction 1.000000 0.000000 0.000000
      length 3.937000
      axis 0.0 0.0 -90.0 xyz
   end
   begin
      id 15
      name LeftHandThumb1
      direction 0.000000 0.000000 1.000000
      length 3.937000
      axis 0.0 0.0 -90.0 xyz
      dof rx rz ry
   end
   begin
      id 16
      name RightShoulder
      direction -1.000000 0.000000 0.000000
      length 7.028855
      axis 0.0 0.0 90.0 xyz
      dof rx ry rz
   end
   begin
      id 17
      name RightArm
      direction -1.000000 0.000000 0.000000
      length 10.797705
      axis 0.0 0.0 90.0 xyz
      dof rx ry rz
   end
   begin
      id 18
      name RightForeArm
      direction -1.000000 0.000000 0.000000
      length 7.907442
      axis 0.0 0.0 90.0 xyz
      dof ry rz rx
   end
   begin
      id 19
      name RightHand
      direction 0.000000 0.000000 0.000000
      length 0.000000
      axis 0.0 0.0 90.0 xyz
      dof rx ry rz
   end
   begin
      id 20
      name RightHand_dum1
      direction 0.000000 0.000000 0.000000
      length 0.000000
      axis 0.0 0.0 90.0 xyz
   end
   begin
      id 21
      name RightHand_dum2
      direction -1.000000 0.000000 0.000000
      length 3.937000
      axis 0.0 0.0 90.0 xyz
   end
   begin
      id 22
      name RightHandThumb1
      direction 0.000000 0.000000 1.000000
      length 3.937000
      axis 0.0 0.0 90.0 xyz
      dof rx rz ry
   end
   begin
      id 23
      name LeftUpLeg
      direction 0.000000 -1.000000 0.000000
      length 16.899758
      axis 0.0 0.0 0.0 xyz
      dof rx ry rz
   end
   begin
      id 24
      name LeftLeg
      direction 0.000000 -1.000000 0.000000
      length 17.389183
      axis 0.0 0.0 0.0 xyz
      dof rx ry rz
   end
   begin
      id 25
      name LeftFoot
      direction 0.000000 -0.258819 0.965926
      length 4.924528
      axis 15.0 0.0 0.0 xyz
      dof rx ry rz
   end
   begin
      id 26
      name LeftToeBase
      direction 0.000000 0.000000 1.000000
      length 2.952750
      axis 0.0 0.0 0.0 xyz
      dof rx ry rz
   end
   begin
      id 27
      name RightUpLeg
      direction 0.000000 -1.000000 0.000000
      length 16.899758
      axis 0.0 0.0 0.0 xyz
      dof rx ry rz
   end
   begin
      id 28
      name RightLeg
      direction 0.000000 -1.000000 0.000000
      length 17.389183
      axis 0.0 0.0 0.0 xyz
      dof rx ry rz
   end
   begin
      id 29
      name RightFoot
      direction 0.000000 -0.258819 0.965926
      length 4.924528
      axis 15.0 0.0 0.0 xyz
      dof rx ry rz
   end
   begin
      id 30
      name RightToeBase
      direction 0.000000 0.000000 1.000000
      length 2.952750
      axis 0.0 0.0 0.0 xyz
      dof rx ry rz
   end
:hierarchy
   begin
      root Spine_dum LeftUpLeg_dum RightUpLeg_dum
      Spine_dum Spine
      LeftUpLeg_dum LeftUpLeg
      RightUpLeg_dum RightUpLeg
      Spine Spine_dum1 Spine_dum2 Spine_dum3
      Spine_dum1 Head
      Spine_dum2 LeftShoulder
      Spine_dum3 RightShoulder
      LeftShoulder LeftArm
      LeftArm LeftForeArm
      LeftForeArm LeftHand
      LeftHand LeftHand_dum1 LeftHand_dum2
      LeftHand_dum1 LeftHandThumb1
      RightShoulder RightArm
      RightArm RightForeArm
      RightForeArm RightHand
      RightHand RightHand_dum1 RightHand_dum2
      RightHand_dum1 RightHandThumb1
      LeftUpLeg LeftLeg
      LeftLeg LeftFoot
      LeftFoot LeftToeBase
      RightUpLeg RightLeg
      RightLeg RightFoot
      RightFoot RightToeBase
   end

# File created by Blade
# Date/Time:  Wed Jan 21 14:43:55 2015
# Frame Rate: 120.000 fps
#------------------------------------------------------
:FULLY-SPECIFIED
:DEGREES
228
root 19.466498 35.346882 -21.282768 -173.087243 -0.962012 181.316368
Spine -11.238143 -1.454038 -3.099732
Head 2.628233 -2.035679 1.699122
LeftShoulder -15.503509 -6.305990 7.263006
LeftArm -52.512791 75.881926 -94.728799
LeftForeArm 22.707772 -0.000000 108.323863
LeftHand 1.693045 -0.000000 8.295706
LeftHandThumb1 -26.253704 0.000000 33.147579
RightShoulder -18.990962 -28.705839 3.721442
RightArm 13.875518 -44.452841 40.910536
RightForeArm -30.424672 -0.000000 105.991846
RightHand 6.338559 0.000000 2.706909
RightHandThumb1 -24.326973 -0.000000 -32.862282
LeftUpLeg 1.915660 10.746876 3.235343
LeftLeg -6.875411 -0.000000 0.000000
LeftFoot -20.293471 28.527514 -11.347282
LeftToeBase 27.999288 -0.000000 -0.000000
RightUpLeg 1.109558 -6.423277 -0.686533
RightLeg -3.485234 -0.000000 0.000000
RightFoot -21.662355 -23.617040 14.779154
RightToeBase 25.468378 -0.000000 -0.000000
229
root 19.495542 35.348125 -21.272781 -173.146052 -0.938554 181.363863
Spine -11.100608 -1.523972 -3.305917
Head 2.550011 -2.073320 1.803107
LeftShoulder -15.336953 -6.271100 7.274298
LeftArm -52.816657 76.121698 -95.139782
LeftForeArm 22.662457 0.000000 108.074162
LeftHand 2.110068 0.000000 8.949136
LeftHandThumb1 -26.253704 0.000000 33.147579
RightShoulder -18.933141 -28.736796 3.703531
RightArm 14.394892 -44.615378 40.372887
RightForeArm -30.395854 -0.000000 105.714376
RightHand 6.376085 -0.000000 2.424033
RightHandThumb1 -24.326973 -0.000000 -32.862282
LeftUpLeg 1.950926 10.797194 3.335148
LeftLeg -6.858070 -0.000000 0.000000
LeftFoot -20.282125 28.523144 -11.345395
LeftToeBase 28.031021 -0.000000 -0.000000
RightUpLeg 1.129785 -6.365677 -0.600713
RightLeg -3.450551 -0.000000 0.000000
RightFoot -21.656316 -23.597546 14.843464
RightToeBase 25.277848 -0.000000 -0.000000
230
root 19.527641 35.348852 -21.261875 -173.203181 -0.898150 181.414155
Spine -10.954288 -1.562754 -3.551214
Head 2.401325 -2.107092 2.007704
LeftShoulder -15.135390 -6.286269 7.317096
LeftArm -53.336037 76.249743 -95.763031
LeftForeArm 22.761739 -0.000000 107.886117
LeftHand 2.106186 -0.000000 9.527230
LeftHandThumb1 -26.253704 0.000000 33.147579
RightShoulder -18.838425 -28.693796 3.706394
RightArm 14.725099 -44.729894 39.978990
RightForeArm -30.514954 -0.000000 105.510463
RightHand 6.437888 -0.000000 2.323607
RightHandThumb1 -24.326973 -0.000000 -32.862282
LeftUpLeg 1.990382 10.855855 3.440252
LeftLeg -6.848094 -0.000000 0.000000
LeftFoot -20.276984 28.521489 -11.366957
LeftToeBase 28.069438 -0.000000 -0.000000
RightUpLeg 1.142320 -6.328215 -0.508375
RightLeg -3.407243 -0.000000 0.000000
RightFoot -21.666517 -23.619057 14.737272
RightToeBase 25.400388 -0.000000 -0.000000
231
root 19.561338 35.350159 -21.248929 -173.251740 -0.846401 181.463475
Spine -10.817923 -1.597308 -3.808187
Head 2.289912 -2.164458 2.152488
LeftShoulder -14.916970 -6.285388 7.365082
LeftArm -53.623870 76.381087 -96.166115
LeftForeArm 22.771273 -0.000000 107.628996
LeftHand 2.714384 -0.000000 9.868411
LeftHandThumb1 -26.253704 0.000000 33.147579
RightShoulder -18.743483 -28.690061 3.702499
RightArm 15.133098 -44.865922 39.555974
RightForeArm -30.642454 0.000000 105.294562
RightHand 6.477097 -0.000000 2.123172
RightHandThumb1 -24.326973 -0.000000 -32.862282
LeftUpLeg 2.021874 10.862953 3.549940
LeftLeg -6.836095 -0.000000 0.000000
LeftFoot -20.269315 28.559088 -11.388248
LeftToeBase 28.100767 -0.000000 -0.000000
RightUpLeg 1.140865 -6.251207 -0.415330
RightLeg -3.362642 -0.000000 0.000000
RightFoot -21.665128 -23.604624 14.719277
RightToeBase 25.408331 -0.000000 -0.000000
232
root 19.594154 35.352310 -21.237068 -173.300129 -0.776549 181.510231
Spine -10.686028 -1.602348 -4.073867
Head 2.149686 -2.290543 2.304241
LeftShoulder -14.705786 -6.237916 7.363878
LeftArm -53.876762 76.556189 -96.522859
LeftForeArm 22.853522 -0.000000 107.432667
LeftHand 2.796231 0.000000 10.364758
LeftHandThumb1 -26.253704 0.000000 33.147579
RightShoulder -18.673125 -28.750071 3.715647
RightArm 15.608328 -44.949545 39.104744
RightForeArm -30.759751 -0.000000 105.073072
RightHand 6.565523 -0.000000 1.989660
RightHandThumb1 -24.326973 -0.000000 -32.862282
LeftUpLeg 2.047825 10.976352 3.647504
LeftLeg -6.809313 -0.000000 0.000000
LeftFoot -20.254224 28.530605 -11.405757
LeftToeBase 28.133333 -0.000000 -0.000000
RightUpLeg 1.144834 -6.159634 -0.328952
RightLeg -3.332862 -0.000000 0.000000
RightFoot -21.656484 -23.586362 14.698182
RightToeBase 25.404899 -0.000000 -0.000000
233
root 19.630194 35.355097 -21.224732 -173.335988 -0.731701 181.577257
Spine -10.587999 -1.644650 -4.326632
Head 2.108950 -2.384889 2.413913
LeftShoulder -14.486678 -6.169081 7.371555
LeftArm -54.198732 76.710851 -96.965877
LeftForeArm 22.868512 0.000000 107.204332
LeftHand 2.963966 0.000000 11.244365
LeftHandThumb1 -26.253704 0.000000 33.147579
RightShoulder -18.583371 -28.820950 3.712562
RightArm 16.087480 -45.064329 38.678050
RightForeArm -30.811092 -0.000000 104.837151
RightHand 6.615128 -0.000000 1.631466
RightHandThumb1 -24.326973 -0.000000 -32.862282
LeftUpLeg 2.061410 11.062687 3.768612
LeftLeg -6.798136 -0.000000 0.000000
LeftFoot -20.232314 28.518656 -11.420744
LeftToeBase 28.141036 -0.000000 -0.000000
RightUpLeg 1.137860 -6.108133 -0.212078
RightLeg -3.301935 -0.000000 0.000000
RightFoot -21.642732 -23.567540 14.729218
RightToeBase 25.407414 -0.000000 -0.000000
234
root 19.668459 35.356347 -21.213076 -173.374286 -0.675371 181.638215
Spine -10.469492 -1.662046 -4.610625
Head 1.969540 -2.503999 2.592025
LeftShoulder -14.307419 -6.131217 7.385508
LeftArm -54.496984 76.909012 -97.354157
LeftForeArm 22.783634 -0.000000 107.060662
LeftHand 2.925400 -0.000000 11.587804
LeftHandThumb1 -26.253704 0.000000 33.147579
RightShoulder -18.497572 -28.883014 3.724533
RightArm 16.551497 -45.230960 38.251202
RightForeArm -31.156129 -0.000000 104.648112
RightHand 6.497789 -0.000000 1.133776
RightHandThumb1 -24.326973 -0.000000 -32.862282
LeftUpLeg 2.083402 11.136930 3.888857
LeftLeg -6.788048 -0.000000 0.000000
LeftFoot -20.222693 28.528894 -11.442893
LeftToeBase 28.152914 -0.000000 -0.000000
RightUpLeg 1.144022 -6.105169 -0.096862
RightLeg -3.293156 -0.000000 0.000000
RightFoot -21.609375 -23.512781 14.692501
RightToeBase 25.359667 -0.000000 -0.000000
235
root 19.707478 35.358423 -21.198980 -173.373449 -0.603414 181.709118
Spine -10.405539 -1.671598 -4.886713
Head 1.876539 -2.659079 2.684150
LeftShoulder -14.103702 -6.120371 7.393982
LeftArm -55.307739 77.105132 -98.271317
LeftForeArm 22.936998 0.000000 106.836467
LeftHand 3.009173 -0.000000 12.396879
LeftHandThumb1 -26.253704 0.000000 33.147579
RightShoulder -18.421349 -28.937747 3.730656
RightArm 17.008815 -45.343492 37.854836
RightForeArm -31.215100 -0.000000 104.468284
RightHand 6.472311 -0.000000 0.937976
RightHandThumb1 -24.326973 -0.000000 -32.862282
LeftUpLeg 2.050261 11.235882 4.009990
LeftLeg -6.749795 -0.000000 0.000000
LeftFoot -20.202601 28.531674 -11.437221
LeftToeBase 28.142065 -0.000000 -0.000000
RightUpLeg 1.096760 -6.024586 0.030275
RightLeg -3.265105 -0.000000 0.000000
RightFoot -21.599918 -23.512336 14.704075
RightToeBase 25.499958 -0.000000 -0.000000
236
root 19.747088 35.360658 -21.185091 -173.378346 -0.533599 181.785607
Spine -10.328337 -1.674208 -5.176041
Head 1.796496 -2.804297 2.782610
LeftShoulder -13.917846 -6.106355 7.403729
LeftArm -55.794226 77.279938 -98.833759
LeftForeArm 22.781004 -0.000000 106.677554
LeftHand 3.074817 -0.000000 13.020261
LeftHandThumb1 -26.253704 0.000000 33.147579
RightShoulder -18.355386 -28.956677 3.743128
RightArm 17.453847 -45.475432 37.453279
RightForeArm -31.090904 -0.000000 104.265224
RightHand 6.556910 -0.000000 0.722990
RightHandThumb1 -24.326973 -0.000000 -32.862282
LeftUpLeg 2.019584 11.343248 4.140609
LeftLeg -6.702745 -0.000000 0.000000
LeftFoot -20.213961 28.517804 -11.440910
LeftToeBase 28.171784 -0.000000 -0.000000
RightUpLeg 1.047851 -6.009115 0.163586
RightLeg -3.224924 -0.000000 0.000000
RightFoot -21.572259 -23.395283 14.694801
RightToeBase 25.337802 -0.000000 -0.000000
237
root 19.790169 35.362212 -21.169959 -173.365279 -0.459577 181.867080
Spine -10.274998 -1.669281 -5.473518
Head 1.695929 -2.934979 2.874714
LeftShoulder -13.698480 -6.102465 7.414725
LeftArm -56.318836 77.387674 -99.407023
LeftForeArm 22.701307 -0.000000 106.530853
LeftHand 3.132278 -0.000000 13.509940
LeftHandThumb1 -26.253704 0.000000 33.147579
RightShoulder -18.310700 -29.021127 3.769677
RightArm 17.931317 -45.535706 37.061201
RightForeArm -31.015611 -0.000000 104.087869
RightHand 6.620520 0.000000 0.652427
RightHandThumb1 -24.326973 -0.000000 -32.862282
LeftUpLeg 1.982184 11.440707 4.276055
LeftLeg -6.680319 -0.000000 0.000000
LeftFoot -20.191208 28.524183 -11.430665
LeftToeBase 28.222154 -0.000000 -0.000000
RightUpLeg 0.986283 -6.025128 0.309942
RightLeg -3.199412 -0.000000 0.000000
RightFoot -21.519910 -23.280987 14.671305
RightToeBase 25.294868 -0.000000 -0.000000
238
root 19.836837 35.364427 -21.153604 -173.335454 -0.400518 181.962328
Spine -10.234135 -1.682617 -5.782279
Head 1.601027 -3.125062 2.990333
LeftShoulder -13.487493 -6.149071 7.432679
LeftArm -57.068093 77.481940 -100.168555
LeftForeArm 22.728022 -0.000000 106.420068
LeftHand 3.191090 -0.000000 14.060954
LeftHandThumb1 -26.253704 0.000000 33.147579
RightShoulder -18.252028 -28.987020 3.766635
RightArm 18.376578 -45.857025 36.685368
RightForeArm -31.566832 -0.000000 103.904794
RightHand 6.279193 -0.000000 -0.052664
RightHandThumb1 -24.326973 -0.000000 -32.862282
LeftUpLeg 1.920161 11.513270 4.430028
LeftLeg -6.653806 -0.000000 0.000000
LeftFoot -20.168750 28.560011 -11.403256
LeftToeBase 28.235935 -0.000000 -0.000000
RightUpLeg 0.911550 -5.975635 0.477606
RightLeg -3.175845 -0.000000 0.000000
RightFoot -21.464321 -23.244393 14.615286
RightToeBase 25.281433 -0.000000 -0.000000
